<svg width="19" height="19" viewBox="0 0 19 19" fill="none" xmlns="http://www.w3.org/2000/svg">
<path fill-rule="evenodd" clip-rule="evenodd" d="M6.41699 2.02087C6.5511 1.75267 6.82522 1.58325 7.12508 1.58325H11.8751C12.1749 1.58325 12.4491 1.75267 12.5832 2.02087L13.5519 3.95825H16.2292C17.3223 3.95825 18.2084 4.84435 18.2084 5.93742V15.4374C18.2084 16.5305 17.3223 17.4166 16.2292 17.4166H2.77091C1.67785 17.4166 0.791748 16.5305 0.791748 15.4374V5.93742C0.791748 4.84435 1.67785 3.95825 2.77091 3.95825H5.44831L6.41699 2.02087ZM7.21853 3.95825H11.7816L11.3858 3.16659H7.61436L7.21853 3.95825ZM2.77091 5.54158C2.5523 5.54158 2.37508 5.71881 2.37508 5.93742V15.4374C2.37508 15.656 2.5523 15.8333 2.77091 15.8333H16.2292C16.4479 15.8333 16.6251 15.656 16.6251 15.4374V5.93742C16.6251 5.71881 16.4479 5.54158 16.2292 5.54158H2.77091ZM5.54175 10.6874C5.54175 8.50128 7.31395 6.72908 9.50008 6.72908C11.6862 6.72908 13.4584 8.50128 13.4584 10.6874C13.4584 12.8736 11.6862 14.6458 9.50008 14.6458C7.31395 14.6458 5.54175 12.8736 5.54175 10.6874ZM9.50008 8.31242C8.1884 8.31242 7.12508 9.37573 7.12508 10.6874C7.12508 11.9991 8.1884 13.0624 9.50008 13.0624C10.8118 13.0624 11.8751 11.9991 11.8751 10.6874C11.8751 9.37573 10.8118 8.31242 9.50008 8.31242Z" fill="#E94057"/>
</svg>
