<svg width="19" height="19" viewBox="0 0 19 19" fill="none" xmlns="http://www.w3.org/2000/svg">
<path d="M5.54162 12.2708C6.59218 12.2708 7.39658 12.4639 8.62597 12.9854L9.0786 13.1833L9.57309 13.4097L10.3003 13.7496L10.719 13.9382C10.7855 13.9675 10.8504 13.9957 10.9139 14.0228L11.2779 14.1735C12.1489 14.5201 12.744 14.6458 13.4583 14.6458C14.209 14.6458 15.0436 14.4454 15.8856 14.1086C16.1859 13.9885 16.465 13.8597 16.7144 13.7314L16.9271 13.6182L17.0093 13.5711C17.3842 13.3461 17.8705 13.4677 18.0955 13.8426C18.3204 14.2175 18.1988 14.7038 17.8239 14.9288L17.6093 15.0511L17.3427 15.1902C17.1 15.3116 16.807 15.4454 16.4737 15.5787C15.4602 15.9841 14.4394 16.2291 13.4583 16.2291C12.4077 16.2291 11.6033 16.0359 10.3739 15.5145L9.92131 15.3166L9.42682 15.0901L8.69961 14.7502L8.28087 14.5616C8.21439 14.5324 8.14949 14.5042 8.08605 14.477L7.72199 14.3263C6.85099 13.9797 6.25593 13.8541 5.54162 13.8541C4.79095 13.8541 3.95634 14.0544 3.11429 14.3912C2.81398 14.5113 2.53491 14.6401 2.28553 14.7684L2.07285 14.8816L1.9906 14.9288C1.61568 15.1537 1.12939 15.0321 0.904442 14.6572C0.679491 14.2823 0.801063 13.796 1.17598 13.5711L1.39059 13.4487L1.65719 13.3097C1.89996 13.1882 2.19294 13.0545 2.52625 12.9211C3.53967 12.5158 4.56053 12.2708 5.54162 12.2708Z" fill="#E94057"/>
<path d="M5.54162 7.52075C6.59218 7.52075 7.39658 7.71394 8.62597 8.23538L9.0786 8.43326L9.57309 8.65973L10.3003 8.99964L10.719 9.18822C10.7855 9.21748 10.8504 9.24567 10.9139 9.27282L11.2779 9.4235C12.1489 9.77014 12.744 9.89575 13.4583 9.89575C14.209 9.89575 15.0436 9.69545 15.8856 9.35862C16.1859 9.2385 16.465 9.1097 16.7144 8.98145L16.9271 8.8682L17.0093 8.82107C17.3842 8.59612 17.8705 8.71769 18.0955 9.09261C18.3204 9.46753 18.1988 9.95382 17.8239 10.1788L17.6093 10.3011L17.3427 10.4402C17.1 10.5616 16.807 10.6954 16.4737 10.8287C15.4602 11.2341 14.4394 11.4791 13.4583 11.4791C12.4077 11.4791 11.6033 11.2859 10.3739 10.7645L9.92131 10.5666L9.42682 10.3401L8.69961 10.0002L8.28087 9.81161C8.21439 9.78236 8.14949 9.75416 8.08605 9.72701L7.72199 9.57634C6.85099 9.2297 6.25593 9.10408 5.54162 9.10408C4.79095 9.10408 3.95634 9.30439 3.11429 9.64121C2.81398 9.76133 2.53491 9.89014 2.28553 10.0184L2.07285 10.1316L1.9906 10.1788C1.61568 10.4037 1.12939 10.2821 0.904442 9.90723C0.679491 9.53231 0.801063 9.04602 1.17598 8.82107L1.39059 8.6987L1.65719 8.55965C1.89996 8.43819 2.19294 8.30445 2.52625 8.17112C3.53967 7.76576 4.56053 7.52075 5.54162 7.52075Z" fill="#E94057"/>
<path d="M5.54162 2.77075C6.59218 2.77075 7.39658 2.96394 8.62597 3.48538L9.0786 3.68326L9.57309 3.90973L10.3003 4.24964L10.719 4.43822C10.7855 4.46748 10.8504 4.49567 10.9139 4.52282L11.2779 4.6735C12.1489 5.02014 12.744 5.14575 13.4583 5.14575C14.209 5.14575 15.0436 4.94545 15.8856 4.60862C16.1859 4.4885 16.465 4.3597 16.7144 4.23145L16.9271 4.1182L17.0093 4.07107C17.3842 3.84612 17.8705 3.96769 18.0955 4.34261C18.3204 4.71753 18.1988 5.20382 17.8239 5.42877L17.6093 5.55114L17.3427 5.69018C17.1 5.81164 16.807 5.94539 16.4737 6.07871C15.4602 6.48408 14.4394 6.72908 13.4583 6.72908C12.4077 6.72908 11.6033 6.53589 10.3739 6.01446L9.92131 5.81657L9.42682 5.59011L8.69961 5.2502L8.28087 5.06161C8.21439 5.03236 8.14949 5.00416 8.08605 4.97701L7.72199 4.82634C6.85099 4.4797 6.25593 4.35409 5.54162 4.35409C4.79095 4.35409 3.95634 4.55439 3.11429 4.89121C2.81398 5.01133 2.53491 5.14014 2.28553 5.26839L2.07285 5.38164L1.9906 5.42877C1.61568 5.65372 1.12939 5.53215 0.904442 5.15723C0.679491 4.78231 0.801063 4.29602 1.17598 4.07107L1.39059 3.9487L1.65719 3.80965C1.89996 3.68819 2.19294 3.55445 2.52625 3.42112C3.53967 3.01576 4.56053 2.77075 5.54162 2.77075Z" fill="#E94057"/>
</svg>
