<svg width="19" height="19" viewBox="0 0 19 19" fill="none" xmlns="http://www.w3.org/2000/svg">
<path fill-rule="evenodd" clip-rule="evenodd" d="M5.93742 4.35425C5.93742 2.38674 7.5324 0.791748 9.49992 0.791748C11.4674 0.791748 13.0624 2.38674 13.0624 4.35425V9.50008C13.0624 11.4676 11.4674 13.0626 9.49992 13.0626C7.5324 13.0626 5.93742 11.4676 5.93742 9.50008V4.35425ZM9.49992 2.37508C8.40685 2.37508 7.52075 3.26119 7.52075 4.35425V9.50008C7.52075 10.5931 8.40685 11.4792 9.49992 11.4792C10.593 11.4792 11.4791 10.5931 11.4791 9.50008V4.35425C11.4791 3.26119 10.593 2.37508 9.49992 2.37508ZM3.56242 8.31258C3.99964 8.31258 4.35409 8.66702 4.35409 9.10425C4.35409 11.9462 6.65794 14.2501 9.49992 14.2501C12.3419 14.2501 14.6458 11.9462 14.6458 9.10425C14.6458 8.66702 15.0002 8.31258 15.4374 8.31258C15.8746 8.31258 16.2291 8.66702 16.2291 9.10425C16.2291 12.5528 13.6349 15.3955 10.2916 15.7873V17.4167C10.2916 17.854 9.93714 18.2084 9.49992 18.2084C9.06269 18.2084 8.70825 17.854 8.70825 17.4167V15.7873C5.3649 15.3955 2.77075 12.5528 2.77075 9.10425C2.77075 8.66702 3.12519 8.31258 3.56242 8.31258Z" fill="#E94057"/>
</svg>
