<svg width="14" height="14" viewBox="0 0 14 14" fill="none" xmlns="http://www.w3.org/2000/svg">
<path d="M7.00008 0.583496C9.7385 0.583496 11.9584 2.80341 11.9584 5.54183C11.9584 7.28341 11.1547 9.04454 9.81104 10.763C9.33416 11.3729 8.81553 11.9416 8.28421 12.4595C8.24043 12.5022 8.19739 12.5438 8.15512 12.5842L7.91132 12.8129L7.68877 13.0134L7.48999 13.1851L7.36859 13.2857C7.15557 13.4593 6.85026 13.4607 6.63568 13.289L6.50875 13.1839L6.31087 13.013L6.08873 12.8128L5.84503 12.5842L5.71596 12.4595C5.18463 11.9416 4.666 11.3729 4.18912 10.763C2.84546 9.04454 2.04175 7.28341 2.04175 5.54183C2.04175 2.80341 4.26166 0.583496 7.00008 0.583496ZM7.00008 1.75016C4.90599 1.75016 3.20841 3.44774 3.20841 5.54183C3.20841 6.97458 3.91004 8.51201 5.10819 10.0444C5.55056 10.6101 6.03446 11.1407 6.53034 11.6242L6.76527 11.8489C6.84266 11.9215 6.92018 11.9942 7.00008 12.0641L7.23487 11.8489L7.46982 11.6242C7.9657 11.1407 8.44961 10.6101 8.89197 10.0444C10.0901 8.51201 10.7917 6.97458 10.7917 5.54183C10.7917 3.44774 9.09417 1.75016 7.00008 1.75016ZM7.00008 3.2085C8.28874 3.2085 9.33341 4.25317 9.33341 5.54183C9.33341 6.83049 8.28874 7.87516 7.00008 7.87516C5.71142 7.87516 4.66675 6.83049 4.66675 5.54183C4.66675 4.25317 5.71142 3.2085 7.00008 3.2085ZM7.00008 4.37516C6.35575 4.37516 5.83341 4.8975 5.83341 5.54183C5.83341 6.18616 6.35575 6.7085 7.00008 6.7085C7.64441 6.7085 8.16675 6.18616 8.16675 5.54183C8.16675 4.8975 7.64441 4.37516 7.00008 4.37516Z" fill="#E94057"/>
</svg>
