<svg width="20" height="20" viewBox="0 0 20 20" fill="none" xmlns="http://www.w3.org/2000/svg">
<path d="M13.7501 10.0002V4.5835C13.7501 2.51243 12.0712 0.833496 10.0001 0.833496C7.929 0.833496 6.25008 2.51243 6.25008 4.5835V10.0002C6.25008 12.0712 7.929 13.7502 10.0001 13.7502C12.0712 13.7502 13.7501 12.0712 13.7501 10.0002Z" fill="#E94057"/>
<path d="M3.75008 8.75016C4.21032 8.75016 4.58341 9.12326 4.58341 9.5835C4.58341 12.575 7.00853 15.0002 10.0001 15.0002C12.9916 15.0002 15.4167 12.575 15.4167 9.5835C15.4167 9.12326 15.7898 8.75016 16.2501 8.75016C16.7103 8.75016 17.0834 9.12326 17.0834 9.5835C17.0834 13.2136 14.3527 16.2059 10.8334 16.6183V18.3335C10.8334 18.7937 10.4603 19.1668 10.0001 19.1668C9.53984 19.1668 9.16675 18.7937 9.16675 18.3335V16.6183C5.64743 16.2059 2.91675 13.2136 2.91675 9.5835C2.91675 9.12326 3.28984 8.75016 3.75008 8.75016Z" fill="#E94057"/>
</svg>
