<svg width="19" height="19" viewBox="0 0 19 19" fill="none" xmlns="http://www.w3.org/2000/svg">
<path fill-rule="evenodd" clip-rule="evenodd" d="M9.50008 2.77083C7.31395 2.77083 5.54175 4.54304 5.54175 6.72917C5.54175 6.74789 5.54188 6.76657 5.54214 6.78523C5.80057 6.74828 6.06476 6.72917 6.33342 6.72917C7.51088 6.72917 8.60258 7.09639 9.50022 7.72256C10.3978 7.09651 11.4894 6.72936 12.6667 6.72936C12.9354 6.72936 13.1996 6.74848 13.458 6.78543C13.4583 6.76671 13.4584 6.74795 13.4584 6.72917C13.4584 4.54304 11.6862 2.77083 9.50008 2.77083ZM15.0175 7.2512C15.0335 7.07935 15.0417 6.90522 15.0417 6.72917C15.0417 3.66859 12.5607 1.1875 9.50008 1.1875C6.4395 1.1875 3.95842 3.66859 3.95842 6.72917C3.95842 6.90515 3.96662 7.07922 3.98266 7.25101C2.09735 8.13542 0.791748 10.0507 0.791748 12.2708C0.791748 15.3314 3.27284 17.8125 6.33342 17.8125C7.51076 17.8125 8.60235 17.4454 9.49994 16.8193C10.3976 17.4455 11.4893 17.8127 12.6667 17.8127C15.7273 17.8127 18.2084 15.3316 18.2084 12.271C18.2084 10.0508 16.9028 8.1356 15.0175 7.2512ZM13.1178 8.33811C12.9697 8.32132 12.8193 8.3127 12.6667 8.3127C11.9457 8.3127 11.2697 8.50548 10.6875 8.84231C11.0035 9.24313 11.2654 9.68864 11.4621 10.1678C12.1906 9.75123 12.774 9.10981 13.1178 8.33811ZM11.8508 11.749C13.104 11.1611 14.101 10.1179 14.6287 8.83236C15.8213 9.51429 16.6251 10.7988 16.6251 12.271C16.6251 14.4572 14.8529 16.2294 12.6667 16.2294C11.9456 16.2294 11.2696 16.0365 10.6873 15.6996C11.4312 14.7563 11.8751 13.5654 11.8751 12.2708C11.8751 12.0948 11.8669 11.9208 11.8508 11.749ZM9.95117 10.6621C9.82948 10.3888 9.67774 10.1319 9.50016 9.89555C9.32255 10.1319 9.17079 10.3888 9.04908 10.6621C9.19709 10.6789 9.34758 10.6875 9.50008 10.6875C9.65261 10.6875 9.80313 10.6789 9.95117 10.6621ZM8.70881 12.2148C8.96724 12.2517 9.23143 12.2708 9.50008 12.2708C9.76873 12.2708 10.0329 12.2517 10.2914 12.2148C10.2916 12.2334 10.2917 12.2521 10.2917 12.2708C10.2917 13.1622 9.99715 13.9847 9.50001 14.6463C9.00296 13.9847 8.70842 13.1623 8.70842 12.271C8.70842 12.2522 8.70855 12.2335 8.70881 12.2148ZM7.53812 10.1678C7.73485 9.68863 7.99679 9.24308 8.3129 8.84224C7.73061 8.50533 7.05453 8.3125 6.33342 8.3125C6.18089 8.3125 6.03037 8.32113 5.88233 8.33792C6.22606 9.10973 6.80952 9.75123 7.53812 10.1678ZM4.37139 8.8322C4.89911 10.1178 5.89616 11.1611 7.14935 11.749C7.13329 11.9209 7.12508 12.095 7.12508 12.271C7.12508 13.5655 7.56891 14.7563 8.31269 15.6996C7.73044 16.0364 7.05444 16.2292 6.33342 16.2292C4.14729 16.2292 2.37508 14.457 2.37508 12.2708C2.37508 10.7986 3.17879 9.51414 4.37139 8.8322Z" fill="#E94057"/>
</svg>
